<svg id="mmd-ci5uknhvbvh" width="100%" xmlns="http://www.w3.org/2000/svg" style="max-width: 1989.2578125px;" viewBox="-8 -8 1989.2578125 784.39453125" role="graphics-document document" aria-roledescription="flowchart-v2"><style>#mmd-ci5uknhvbvh{font-family:"trebuchet ms",verdana,arial,sans-serif;font-size:16px;fill:#333;}#mmd-ci5uknhvbvh .error-icon{fill:#552222;}#mmd-ci5uknhvbvh .error-text{fill:#552222;stroke:#552222;}#mmd-ci5uknhvbvh .edge-thickness-normal{stroke-width:2px;}#mmd-ci5uknhvbvh .edge-thickness-thick{stroke-width:3.5px;}#mmd-ci5uknhvbvh .edge-pattern-solid{stroke-dasharray:0;}#mmd-ci5uknhvbvh .edge-pattern-dashed{stroke-dasharray:3;}#mmd-ci5uknhvbvh .edge-pattern-dotted{stroke-dasharray:2;}#mmd-ci5uknhvbvh .marker{fill:#333333;stroke:#333333;}#mmd-ci5uknhvbvh .marker.cross{stroke:#333333;}#mmd-ci5uknhvbvh svg{font-family:"trebuchet ms",verdana,arial,sans-serif;font-size:16px;}#mmd-ci5uknhvbvh .label{font-family:"trebuchet ms",verdana,arial,sans-serif;color:#333;}#mmd-ci5uknhvbvh .cluster-label text{fill:#333;}#mmd-ci5uknhvbvh .cluster-label span,#mmd-ci5uknhvbvh p{color:#333;}#mmd-ci5uknhvbvh .label text,#mmd-ci5uknhvbvh span,#mmd-ci5uknhvbvh p{fill:#333;color:#333;}#mmd-ci5uknhvbvh .node rect,#mmd-ci5uknhvbvh .node circle,#mmd-ci5uknhvbvh .node ellipse,#mmd-ci5uknhvbvh .node polygon,#mmd-ci5uknhvbvh .node path{fill:#ECECFF;stroke:#9370DB;stroke-width:1px;}#mmd-ci5uknhvbvh .flowchart-label text{text-anchor:middle;}#mmd-ci5uknhvbvh .node .katex path{fill:#000;stroke:#000;stroke-width:1px;}#mmd-ci5uknhvbvh .node .label{text-align:center;}#mmd-ci5uknhvbvh .node.clickable{cursor:pointer;}#mmd-ci5uknhvbvh .arrowheadPath{fill:#333333;}#mmd-ci5uknhvbvh .edgePath .path{stroke:#333333;stroke-width:2.0px;}#mmd-ci5uknhvbvh .flowchart-link{stroke:#333333;fill:none;}#mmd-ci5uknhvbvh .edgeLabel{background-color:#e8e8e8;text-align:center;}#mmd-ci5uknhvbvh .edgeLabel rect{opacity:0.5;background-color:#e8e8e8;fill:#e8e8e8;}#mmd-ci5uknhvbvh .labelBkg{background-color:rgba(232, 232, 232, 0.5);}#mmd-ci5uknhvbvh .cluster rect{fill:#ffffde;stroke:#aaaa33;stroke-width:1px;}#mmd-ci5uknhvbvh .cluster text{fill:#333;}#mmd-ci5uknhvbvh .cluster span,#mmd-ci5uknhvbvh p{color:#333;}#mmd-ci5uknhvbvh div.mermaidTooltip{position:absolute;text-align:center;max-width:200px;padding:2px;font-family:"trebuchet ms",verdana,arial,sans-serif;font-size:12px;background:hsl(80, 100%, 96.2745098039%);border:1px solid #aaaa33;border-radius:2px;pointer-events:none;z-index:100;}#mmd-ci5uknhvbvh .flowchartTitleText{text-anchor:middle;font-size:18px;fill:#333;}#mmd-ci5uknhvbvh :root{--mermaid-font-family:"trebuchet ms",verdana,arial,sans-serif;}</style><g><marker id="mmd-ci5uknhvbvh_flowchart-pointEnd" class="marker flowchart" viewBox="0 0 10 10" refX="6" refY="5" markerUnits="userSpaceOnUse" markerWidth="12" markerHeight="12" orient="auto"><path d="M 0 0 L 10 5 L 0 10 z" class="arrowMarkerPath" style="stroke-width: 1; stroke-dasharray: 1, 0;"></path></marker><marker id="mmd-ci5uknhvbvh_flowchart-pointStart" class="marker flowchart" viewBox="0 0 10 10" refX="4.5" refY="5" markerUnits="userSpaceOnUse" markerWidth="12" markerHeight="12" orient="auto"><path d="M 0 5 L 10 10 L 10 0 z" class="arrowMarkerPath" style="stroke-width: 1; stroke-dasharray: 1, 0;"></path></marker><marker id="mmd-ci5uknhvbvh_flowchart-circleEnd" class="marker flowchart" viewBox="0 0 10 10" refX="11" refY="5" markerUnits="userSpaceOnUse" markerWidth="11" markerHeight="11" orient="auto"><circle cx="5" cy="5" r="5" class="arrowMarkerPath" style="stroke-width: 1; stroke-dasharray: 1, 0;"></circle></marker><marker id="mmd-ci5uknhvbvh_flowchart-circleStart" class="marker flowchart" viewBox="0 0 10 10" refX="-1" refY="5" markerUnits="userSpaceOnUse" markerWidth="11" markerHeight="11" orient="auto"><circle cx="5" cy="5" r="5" class="arrowMarkerPath" style="stroke-width: 1; stroke-dasharray: 1, 0;"></circle></marker><marker id="mmd-ci5uknhvbvh_flowchart-crossEnd" class="marker cross flowchart" viewBox="0 0 11 11" refX="12" refY="5.2" markerUnits="userSpaceOnUse" markerWidth="11" markerHeight="11" orient="auto"><path d="M 1,1 l 9,9 M 10,1 l -9,9" class="arrowMarkerPath" style="stroke-width: 2; stroke-dasharray: 1, 0;"></path></marker><marker id="mmd-ci5uknhvbvh_flowchart-crossStart" class="marker cross flowchart" viewBox="0 0 11 11" refX="-1" refY="5.2" markerUnits="userSpaceOnUse" markerWidth="11" markerHeight="11" orient="auto"><path d="M 1,1 l 9,9 M 10,1 l -9,9" class="arrowMarkerPath" style="stroke-width: 2; stroke-dasharray: 1, 0;"></path></marker><g class="root"><g class="clusters"><g class="cluster default flowchart-label" id="L3"><rect style="" rx="0" ry="0" x="1035.03125" y="300" width="298.75" height="103"></rect><g class="cluster-label" transform="translate(1035.03125, 300)"><foreignObject width="298.75" height="19"><div xmlns="http://www.w3.org/1999/xhtml" style="display: inline-block; white-space: nowrap;"><span class="nodeLabel">Layer 3 — Realtime (X-OPC, independent)</span></div></foreignObject></g></g><g class="cluster default flowchart-label" id="L2"><rect style="" rx="0" ry="0" x="1283.90625" y="128" width="587.921875" height="103"></rect><g class="cluster-label" transform="translate(1485.0703125, 128)"><foreignObject width="185.59375" height="19"><div xmlns="http://www.w3.org/1999/xhtml" style="display: inline-block; white-space: nowrap;"><span class="nodeLabel">Layer 2 — Change triggers</span></div></foreignObject></g></g><g class="cluster default flowchart-label" id="L1"><rect style="" rx="0" ry="0" x="1392.16796875" y="472" width="581.08984375" height="103"></rect><g class="cluster-label" transform="translate(1535.673828125, 472)"><foreignObject width="294.078125" height="19"><div xmlns="http://www.w3.org/1999/xhtml" style="display: inline-block; white-space: nowrap;"><span class="nodeLabel">Layer 1 — Metadata (API + OPC together)</span></div></foreignObject></g></g><g class="cluster default flowchart-label" id="HOST"><rect style="" rx="0" ry="0" x="0" y="0" width="963.0859375" height="768.3945083618164"></rect><g class="cluster-label" transform="translate(372.64453125, 0)"><foreignObject width="217.796875" height="19"><div xmlns="http://www.w3.org/1999/xhtml" style="display: inline-block; white-space: nowrap;"><span class="nodeLabel">Host station — Report Solution</span></div></foreignObject></g></g></g><g class="edgePaths"><path d="M1824.777,78L1835.952,82.167C1847.127,86.333,1869.478,94.667,1880.653,103C1891.828,111.333,1891.828,119.667,1891.828,132.417C1891.828,145.167,1891.828,162.333,1891.828,179.5C1891.828,196.667,1891.828,213.833,1891.828,228.167C1891.828,242.5,1891.828,254,1891.828,265.5C1891.828,277,1891.828,288.5,1891.828,302.833C1891.828,317.167,1891.828,334.333,1891.828,351.5C1891.828,368.667,1891.828,385.833,1891.828,400.167C1891.828,414.5,1891.828,426,1891.828,437.5C1891.828,449,1891.828,460.5,1887.535,469.849C1883.242,479.198,1874.656,486.397,1870.363,489.996L1866.069,493.595" id="L-SILworX-API-0" class=" edge-thickness-normal edge-pattern-solid flowchart-link LS-SILworX LE-API" style="fill:none;" marker-end="url(#mmd-ci5uknhvbvh_flowchart-pointEnd)"></path><path d="M1671.281,65.049L1632.803,71.374C1594.326,77.699,1517.37,90.35,1478.892,100.841C1440.414,111.333,1440.414,119.667,1440.414,127.117C1440.414,134.567,1440.414,141.133,1440.414,144.417L1440.414,147.7" id="L-SILworX-PM-0" class=" edge-thickness-normal edge-pattern-solid flowchart-link LS-SILworX LE-PM" style="fill:none;" marker-end="url(#mmd-ci5uknhvbvh_flowchart-pointEnd)"></path><path d="M1145.376,206L1151.881,210.167C1158.386,214.333,1171.396,222.667,1177.901,232.583C1184.406,242.5,1184.406,254,1184.406,265.5C1184.406,277,1184.406,288.5,1184.406,297.533C1184.406,306.567,1184.406,313.133,1184.406,316.417L1184.406,319.7" id="L-XOPC-OPC-0" class=" edge-thickness-normal edge-pattern-solid flowchart-link LS-XOPC LE-OPC" style="fill:none;" marker-end="url(#mmd-ci5uknhvbvh_flowchart-pointEnd)"></path><path d="M1062.632,206L1056.127,210.167C1049.622,214.333,1036.612,222.667,1030.107,232.583C1023.602,242.5,1023.602,254,1023.602,265.5C1023.602,277,1023.602,288.5,1023.602,302.833C1023.602,317.167,1023.602,334.333,1023.602,351.5C1023.602,368.667,1023.602,385.833,1023.602,400.167C1023.602,414.5,1023.602,426,1099.37,437.5C1175.139,449,1326.677,460.5,1406.998,471.341C1487.32,482.183,1496.424,492.366,1500.977,497.457L1505.529,502.549" id="L-XOPC-OPCB-0" class=" edge-thickness-normal edge-pattern-solid flowchart-link LS-XOPC LE-OPCB" style="fill:none;" marker-end="url(#mmd-ci5uknhvbvh_flowchart-pointEnd)"></path><path d="M1440.414,206L1440.414,210.167C1440.414,214.333,1440.414,222.667,1440.414,232.583C1440.414,242.5,1440.414,254,1440.414,265.5C1440.414,277,1440.414,288.5,1455.436,299.699C1470.458,310.898,1500.501,321.795,1515.523,327.244L1530.545,332.693" id="L-PM-REFRESH-0" class=" edge-thickness-normal edge-pattern-solid flowchart-link LS-PM LE-REFRESH" style="fill:none;" marker-end="url(#mmd-ci5uknhvbvh_flowchart-pointEnd)"></path><path d="M1724.375,206L1724.375,210.167C1724.375,214.333,1724.375,222.667,1724.375,232.583C1724.375,242.5,1724.375,254,1724.375,265.5C1724.375,277,1724.375,288.5,1709.353,299.699C1694.331,310.898,1664.288,321.795,1649.266,327.244L1634.244,332.693" id="L-FS-REFRESH-0" class=" edge-thickness-normal edge-pattern-solid flowchart-link LS-FS LE-REFRESH" style="fill:none;" marker-end="url(#mmd-ci5uknhvbvh_flowchart-pointEnd)"></path><path d="M541.113,196.5L541.113,202.25C541.113,208,541.113,219.5,541.113,231C541.113,242.5,541.113,254,541.113,265.5C541.113,277,541.113,288.5,702.601,302.237C864.088,315.974,1187.063,331.948,1348.551,339.934L1510.039,347.921" id="L-WEB-REFRESH-0" class=" edge-thickness-normal edge-pattern-solid flowchart-link LS-WEB LE-REFRESH" style="fill:none;" marker-end="url(#mmd-ci5uknhvbvh_flowchart-pointEnd)"></path><path d="M1636.622,368.5L1654.964,374.25C1673.305,380,1709.989,391.5,1728.33,403C1746.672,414.5,1746.672,426,1746.672,437.5C1746.672,449,1746.672,460.5,1752.693,469.954C1758.715,479.408,1770.758,486.815,1776.78,490.519L1782.801,494.223" id="L-REFRESH-API-0" class=" edge-thickness-normal edge-pattern-solid flowchart-link LS-REFRESH LE-API" style="fill:none;" marker-end="url(#mmd-ci5uknhvbvh_flowchart-pointEnd)"></path><path d="M1567.953,368.5L1563.068,374.25C1558.183,380,1548.414,391.5,1543.529,403C1538.645,414.5,1538.645,426,1538.645,437.5C1538.645,449,1538.645,460.5,1537.276,471.149C1535.908,481.798,1533.172,491.597,1531.803,496.496L1530.435,501.395" id="L-REFRESH-OPCB-0" class=" edge-thickness-normal edge-pattern-solid flowchart-link LS-REFRESH LE-OPCB" style="fill:none;" marker-end="url(#mmd-ci5uknhvbvh_flowchart-pointEnd)"></path><path d="M1830.398,550L1830.398,554.167C1830.398,558.333,1830.398,566.667,1663.445,576.583C1496.492,586.5,1162.586,598,954.387,613.56C746.187,629.12,663.695,648.741,622.449,658.551L581.203,668.361" id="L-API-DB-0" class=" edge-thickness-normal edge-pattern-solid flowchart-link LS-API LE-DB" style="fill:none;" marker-end="url(#mmd-ci5uknhvbvh_flowchart-pointEnd)"></path><path d="M1524.262,540.5L1524.262,546.25C1524.262,552,1524.262,563.5,1364.032,575C1203.802,586.5,883.342,598,717.709,609.237C552.075,620.473,541.268,631.446,535.864,636.933L530.46,642.419" id="L-OPCB-DB-0" class=" edge-thickness-normal edge-pattern-solid flowchart-link LS-OPCB LE-DB" style="fill:none;" marker-end="url(#mmd-ci5uknhvbvh_flowchart-pointEnd)"></path><path d="M1184.406,378L1184.406,382.167C1184.406,386.333,1184.406,394.667,1184.406,404.583C1184.406,414.5,1184.406,426,1183.676,437.5C1182.945,449,1181.484,460.5,1180.754,469.533C1180.023,478.567,1180.023,485.133,1180.023,488.417L1180.023,491.7" id="L-OPC-MON-0" class=" edge-thickness-normal edge-pattern-solid flowchart-link LS-OPC LE-MON" style="fill:none;" marker-end="url(#mmd-ci5uknhvbvh_flowchart-pointEnd)"></path><path d="M1112.641,527.803L989.464,535.669C866.286,543.535,619.932,559.268,496.755,572.884C373.578,586.5,373.578,598,379.827,609.401C386.077,620.803,398.575,632.106,404.824,637.757L411.074,643.409" id="L-MON-DB-0" class=" edge-thickness-normal edge-pattern-solid flowchart-link LS-MON LE-DB" style="fill:none;" marker-end="url(#mmd-ci5uknhvbvh_flowchart-pointEnd)"></path><path d="M1112.641,526.967L957.06,534.973C801.479,542.978,490.318,558.989,334.737,572.745C179.156,586.5,179.156,598,179.156,612.483C179.156,626.966,179.156,644.432,179.156,653.164L179.156,661.897" id="L-MON-RPT-0" class=" edge-thickness-normal edge-pattern-solid flowchart-link LS-MON LE-RPT" style="fill:none;" marker-end="url(#mmd-ci5uknhvbvh_flowchart-pointEnd)"></path><path d="M194.953,60.821L252.646,67.85C310.34,74.88,425.727,88.94,483.42,100.137C541.113,111.333,541.113,119.667,541.113,128.7C541.113,137.733,541.113,147.467,541.113,152.333L541.113,157.2" id="L-SVC-WEB-0" class=" edge-thickness-normal edge-pattern-solid flowchart-link LS-SVC LE-WEB" style="fill:none;" marker-end="url(#mmd-ci5uknhvbvh_flowchart-pointEnd)"></path><path d="M93.985,78L90.137,82.167C86.288,86.333,78.591,94.667,74.743,103C70.895,111.333,70.895,119.667,70.895,132.417C70.895,145.167,70.895,162.333,70.895,179.5C70.895,196.667,70.895,213.833,70.895,228.167C70.895,242.5,70.895,254,70.895,265.5C70.895,277,70.895,288.5,70.895,302.833C70.895,317.167,70.895,334.333,70.895,351.5C70.895,368.667,70.895,385.833,70.895,400.167C70.895,414.5,70.895,426,70.895,437.5C70.895,449,70.895,460.5,70.895,474.833C70.895,489.167,70.895,506.333,70.895,523.5C70.895,540.667,70.895,557.833,70.895,572.167C70.895,586.5,70.895,598,120.433,614.08C169.971,630.159,269.048,650.819,318.586,661.149L368.124,671.478" id="L-SVC-DB-0" class=" edge-thickness-normal edge-pattern-solid flowchart-link LS-SVC LE-DB" style="fill:none;" marker-end="url(#mmd-ci5uknhvbvh_flowchart-pointEnd)"></path></g><g class="edgeLabels"><g class="edgeLabel"><g class="label" transform="translate(0, 0)"><foreignObject width="0" height="0"><div xmlns="http://www.w3.org/1999/xhtml" style="display: inline-block; white-space: nowrap;"><span class="edgeLabel"></span></div></foreignObject></g></g><g class="edgeLabel"><g class="label" transform="translate(0, 0)"><foreignObject width="0" height="0"><div xmlns="http://www.w3.org/1999/xhtml" style="display: inline-block; white-space: nowrap;"><span class="edgeLabel"></span></div></foreignObject></g></g><g class="edgeLabel"><g class="label" transform="translate(0, 0)"><foreignObject width="0" height="0"><div xmlns="http://www.w3.org/1999/xhtml" style="display: inline-block; white-space: nowrap;"><span class="edgeLabel"></span></div></foreignObject></g></g><g class="edgeLabel"><g class="label" transform="translate(0, 0)"><foreignObject width="0" height="0"><div xmlns="http://www.w3.org/1999/xhtml" style="display: inline-block; white-space: nowrap;"><span class="edgeLabel"></span></div></foreignObject></g></g><g class="edgeLabel" transform="translate(1440.4140625, 265.5)"><g class="label" transform="translate(-67.328125, -9.5)"><foreignObject width="134.65625" height="19"><div xmlns="http://www.w3.org/1999/xhtml" style="display: inline-block; white-space: nowrap;"><span class="edgeLabel">session open/close</span></div></foreignObject></g></g><g class="edgeLabel" transform="translate(1724.375, 265.5)"><g class="label" transform="translate(-143.7421875, -9.5)"><foreignObject width="287.484375" height="19"><div xmlns="http://www.w3.org/1999/xhtml" style="display: inline-block; white-space: nowrap;"><span class="edgeLabel">modify · codegen · download · type CSV</span></div></foreignObject></g></g><g class="edgeLabel" transform="translate(541.11328125, 265.5)"><g class="label" transform="translate(-54.0703125, -9.5)"><foreignObject width="108.140625" height="19"><div xmlns="http://www.w3.org/1999/xhtml" style="display: inline-block; white-space: nowrap;"><span class="edgeLabel">manual refresh</span></div></foreignObject></g></g><g class="edgeLabel"><g class="label" transform="translate(0, 0)"><foreignObject width="0" height="0"><div xmlns="http://www.w3.org/1999/xhtml" style="display: inline-block; white-space: nowrap;"><span class="edgeLabel"></span></div></foreignObject></g></g><g class="edgeLabel"><g class="label" transform="translate(0, 0)"><foreignObject width="0" height="0"><div xmlns="http://www.w3.org/1999/xhtml" style="display: inline-block; white-space: nowrap;"><span class="edgeLabel"></span></div></foreignObject></g></g><g class="edgeLabel" transform="translate(828.6796875, 609.5)"><g class="label" transform="translate(-112.4453125, -9.5)"><foreignObject width="224.890625" height="19"><div xmlns="http://www.w3.org/1999/xhtml" style="display: inline-block; white-space: nowrap;"><span class="edgeLabel">Results_Type · Config/Resource</span></div></foreignObject></g></g><g class="edgeLabel" transform="translate(562.8828125, 609.5)"><g class="label" transform="translate(-133.3515625, -9.5)"><foreignObject width="266.703125" height="19"><div xmlns="http://www.w3.org/1999/xhtml" style="display: inline-block; white-space: nowrap;"><span class="edgeLabel">union of tags · prefix · PresentOnOpc</span></div></foreignObject></g></g><g class="edgeLabel" transform="translate(1184.40625, 437.5)"><g class="label" transform="translate(-134.015625, -9.5)"><foreignObject width="268.03125" height="19"><div xmlns="http://www.w3.org/1999/xhtml" style="display: inline-block; white-space: nowrap;"><span class="edgeLabel">Running edge · snapshot on complete</span></div></foreignObject></g></g><g class="edgeLabel" transform="translate(373.578125, 609.5)"><g class="label" transform="translate(-35.953125, -9.5)"><foreignObject width="71.90625" height="19"><div xmlns="http://www.w3.org/1999/xhtml" style="display: inline-block; white-space: nowrap;"><span class="edgeLabel">SQL insert</span></div></foreignObject></g></g><g class="edgeLabel" transform="translate(179.15625, 609.5)"><g class="label" transform="translate(-37.3671875, -9.5)"><foreignObject width="74.734375" height="19"><div xmlns="http://www.w3.org/1999/xhtml" style="display: inline-block; white-space: nowrap;"><span class="edgeLabel">PDF/HTML</span></div></foreignObject></g></g><g class="edgeLabel"><g class="label" transform="translate(0, 0)"><foreignObject width="0" height="0"><div xmlns="http://www.w3.org/1999/xhtml" style="display: inline-block; white-space: nowrap;"><span class="edgeLabel"></span></div></foreignObject></g></g><g class="edgeLabel"><g class="label" transform="translate(0, 0)"><foreignObject width="0" height="0"><div xmlns="http://www.w3.org/1999/xhtml" style="display: inline-block; white-space: nowrap;"><span class="edgeLabel"></span></div></foreignObject></g></g></g><g class="nodes"><g class="node default default flowchart-label" id="flowchart-OPC-8" data-node="true" data-id="OPC" transform="translate(1184.40625, 351.5)"><rect class="basic label-container" style="" rx="0" ry="0" x="-105.8046875" y="-26.5" width="211.609375" height="53"></rect><g class="label" style="" transform="translate(-98.3046875, -19)"><rect></rect><foreignObject width="196.609375" height="38"><div xmlns="http://www.w3.org/1999/xhtml" style="display: inline-block; white-space: nowrap;"><span class="nodeLabel">OPC poll loop 1 s<br/>discover servers · read tags</span></div></foreignObject></g></g><g class="node default default flowchart-label" id="flowchart-PM-6" data-node="true" data-id="PM" transform="translate(1440.4140625, 179.5)"><rect class="basic label-container" style="" rx="0" ry="0" x="-121.5078125" y="-26.5" width="243.015625" height="53"></rect><g class="label" style="" transform="translate(-114.0078125, -19)"><rect></rect><foreignObject width="228.015625" height="38"><div xmlns="http://www.w3.org/1999/xhtml" style="display: inline-block; white-space: nowrap;"><span class="nodeLabel">Plugin monitor :8400–8409<br/>TRIGGER_SESSION_ID_CHANGED</span></div></foreignObject></g></g><g class="node default default flowchart-label" id="flowchart-FS-7" data-node="true" data-id="FS" transform="translate(1724.375, 179.5)"><rect class="basic label-container" style="" rx="0" ry="0" x="-112.453125" y="-26.5" width="224.90625" height="53"></rect><g class="label" style="" transform="translate(-104.953125, -19)"><rect></rect><foreignObject width="209.90625" height="38"><div xmlns="http://www.w3.org/1999/xhtml" style="display: inline-block; white-space: nowrap;"><span class="nodeLabel">File watchers<br/>c3data · .E3 · CSV defs (rare)</span></div></foreignObject></g></g><g class="node default default flowchart-label" id="flowchart-API-4" data-node="true" data-id="API" transform="translate(1830.3984375, 523.5)"><rect class="basic label-container" style="" rx="0" ry="0" x="-107.859375" y="-26.5" width="215.71875" height="53"></rect><g class="label" style="" transform="translate(-100.359375, -19)"><rect></rect><foreignObject width="200.71875" height="38"><div xmlns="http://www.w3.org/1999/xhtml" style="display: inline-block; white-space: nowrap;"><span class="nodeLabel">HTTPS API :51710–51719<br/>structuretree + globals read</span></div></foreignObject></g></g><g class="node default default flowchart-label" id="flowchart-OPCB-5" data-node="true" data-id="OPCB" transform="translate(1524.26171875, 523.5)"><rect class="basic label-container" style="" rx="0" ry="0" x="-97.09375" y="-17" width="194.1875" height="34"></rect><g class="label" style="" transform="translate(-89.59375, -9.5)"><rect></rect><foreignObject width="179.1875" height="19"><div xmlns="http://www.w3.org/1999/xhtml" style="display: inline-block; white-space: nowrap;"><span class="nodeLabel">X-OPC device-list browse</span></div></foreignObject></g></g><g class="node default default flowchart-label" id="flowchart-SVC-0" data-node="true" data-id="SVC" transform="translate(118.4609375, 51.5)"><rect class="basic label-container" style="" rx="0" ry="0" x="-76.4921875" y="-26.5" width="152.984375" height="53"></rect><g class="label" style="" transform="translate(-68.9921875, -19)"><rect></rect><foreignObject width="137.984375" height="38"><div xmlns="http://www.w3.org/1999/xhtml" style="display: inline-block; white-space: nowrap;"><span class="nodeLabel">Background service<br/>(ProoftestService)</span></div></foreignObject></g></g><g class="node default default flowchart-label" id="flowchart-WEB-1" data-node="true" data-id="WEB" transform="translate(541.11328125, 179.5)"><rect class="basic label-container" style="" rx="0" ry="0" x="-60.1328125" y="-17" width="120.265625" height="34"></rect><g class="label" style="" transform="translate(-52.6328125, -9.5)"><rect></rect><foreignObject width="105.265625" height="19"><div xmlns="http://www.w3.org/1999/xhtml" style="display: inline-block; white-space: nowrap;"><span class="nodeLabel">Web GUI :8080</span></div></foreignObject></g></g><g class="node default default flowchart-label" id="flowchart-DB-2" label-offset-y="15.464839094159714" data-node="true" data-id="DB" transform="translate(474.6796875, 693.6972541809082)"><path style="" d="M 0,15.464839094159714 a 101.3671875,15.464839094159714 0,0,0 202.734375 0 a 101.3671875,15.464839094159714 0,0,0 -202.734375 0 l 0,68.46483909415971 a 101.3671875,15.464839094159714 0,0,0 202.734375 0 l 0,-68.46483909415971" transform="translate(-101.3671875,-49.69725864123957)"></path><g class="label" style="" transform="translate(-93.8671875, -19)"><rect></rect><foreignObject width="187.734375" height="38"><div xmlns="http://www.w3.org/1999/xhtml" style="display: inline-block; white-space: nowrap;"><span class="nodeLabel">HIMA Automated Prooftest<br/>SQL Server / SQLite</span></div></foreignObject></g></g><g class="node default default flowchart-label" id="flowchart-RPT-3" data-node="true" data-id="RPT" transform="translate(179.15625, 693.6972541809082)"><rect class="basic label-container" style="" rx="0" ry="0" x="-144.15625" y="-26.5" width="288.3125" height="53"></rect><g class="label" style="" transform="translate(-136.65625, -19)"><rect></rect><foreignObject width="273.3125" height="38"><div xmlns="http://www.w3.org/1999/xhtml" style="display: inline-block; white-space: nowrap;"><span class="nodeLabel">Report folders<br/>C:\\HIMA Automated Prooftest Reports</span></div></foreignObject></g></g><g class="node default default flowchart-label" id="flowchart-SILworX-9" data-node="true" data-id="SILworX" transform="translate(1753.703125, 51.5)"><rect class="basic label-container" style="" rx="0" ry="0" x="-82.421875" y="-26.5" width="164.84375" height="53"></rect><g class="label" style="" transform="translate(-74.921875, -19)"><rect></rect><foreignObject width="149.84375" height="38"><div xmlns="http://www.w3.org/1999/xhtml" style="display: inline-block; white-space: nowrap;"><span class="nodeLabel">SILworX<br/>(engineering station)</span></div></foreignObject></g></g><g class="node default default flowchart-label" id="flowchart-XOPC-10" data-node="true" data-id="XOPC" transform="translate(1104.00390625, 179.5)"><rect class="basic label-container" style="" rx="0" ry="0" x="-66.03125" y="-26.5" width="132.0625" height="53"></rect><g class="label" style="" transform="translate(-58.53125, -19)"><rect></rect><foreignObject width="117.0625" height="38"><div xmlns="http://www.w3.org/1999/xhtml" style="display: inline-block; white-space: nowrap;"><span class="nodeLabel">X-OPC servers<br/>(HIMA / X_OPC*)</span></div></foreignObject></g></g><g class="node default default flowchart-label" id="flowchart-REFRESH-20" data-node="true" data-id="REFRESH" transform="translate(1582.39453125, 351.5)"><rect class="basic label-container" style="" rx="0" ry="0" x="-67.0625" y="-17" width="134.125" height="34"></rect><g class="label" style="" transform="translate(-59.5625, -9.5)"><rect></rect><foreignObject width="119.125" height="19"><div xmlns="http://www.w3.org/1999/xhtml" style="display: inline-block; white-space: nowrap;"><span class="nodeLabel">service.refresh()</span></div></foreignObject></g></g><g class="node default default flowchart-label" id="flowchart-MON-34" data-node="true" data-id="MON" transform="translate(1180.0234375, 523.5)"><rect class="basic label-container" style="" rx="0" ry="0" x="-67.3828125" y="-26.5" width="134.765625" height="53"></rect><g class="label" style="" transform="translate(-59.8828125, -19)"><rect></rect><foreignObject width="119.765625" height="38"><div xmlns="http://www.w3.org/1999/xhtml" style="display: inline-block; white-space: nowrap;"><span class="nodeLabel">ProoftestMonitor<br/>(Step 5)</span></div></foreignObject></g></g></g></g></g></svg>